# xmcd
#
# Track frame offsets: 
#        150
#        68737
#        112749
#        161282
#        204064
#        248322
#        267890
#        292432
#
# Disc length: 4360 seconds
#
# Revision: 0
# Processed by: cddbd v1.5.2PL0 Copyright (c) Steve Scherf et al.
# Submitted via: ExactAudioCopy v1.0b1
#
DISCID=62110608
DTITLE=Eugen Jochum - The Complete Beethoven Symphonies 1 CD1
DYEAR=2012
DGENRE=Classical
TTITLE0=Symphony No. 7 In A Major, Op. 92: I Poco sostenuto - Vivace
TTITLE1=Symphony No. 7 In A Major, Op. 92: II Allegretto
TTITLE2=Symphony No. 7 In A Major, Op. 92: III Presto
TTITLE3=Symphony No. 7 In A Major, Op. 92: IV Allegro con brio
TTITLE4=Symphony No. 8 In F Major, Op. 93: I Allegro vivace e con brio
TTITLE5=Symphony No. 8 In F Major, Op. 93: II Allegretto scherzando
TTITLE6=Symphony No. 8 In F Major, Op. 93: III Tempo di menuetto
TTITLE7=Symphony No. 8 In F Major, Op. 93: IV Allegro vivace
EXTD=
EXTT0=
EXTT1=
EXTT2=
EXTT3=
EXTT4=
EXTT5=
EXTT6=
EXTT7=
PLAYORDER=
